<?xml version="1.0" encoding="UTF-8"?>
<svg version="1.1" xmlns="http://www.w3.org/2000/svg" width="1084" height="1076">
<path d="M0 0 C1.08294657 0.00013784 1.08294657 0.00013784 2.18777084 0.00027847 C26.33375559 0.00424271 50.13884502 0.86663875 74.0625 4.375 C75.36638672 4.56223633 76.67027344 4.74947266 78.01367188 4.94238281 C86.41268727 6.18739815 94.74201875 7.68587111 103.0625 9.375 C104.92213379 9.75180908 104.92213379 9.75180908 106.81933594 10.13623047 C145.86807643 18.20182536 183.89787767 30.58299647 220.0625 47.375 C221.0309082 47.81811523 221.99931641 48.26123047 222.99707031 48.71777344 C237.80699034 55.50544686 252.02789352 63.10823415 266.0625 71.375 C267.0431543 71.95185547 268.02380859 72.52871094 269.03417969 73.12304688 C281.7872024 80.66403711 294.13534763 88.58453381 306.0625 97.375 C307.1246875 98.15359375 308.186875 98.9321875 309.28125 99.734375 C312.22916946 101.92204154 315.15137054 104.13863564 318.0625 106.375 C318.60438965 106.79072266 319.1462793 107.20644531 319.70458984 107.63476562 C332.52786268 117.50163273 344.72755835 128.00942579 356.5859375 139.01171875 C358.09143319 140.40171345 359.60656501 141.78040916 361.125 143.15625 C369.53814708 150.78705866 377.77018089 158.54948213 385.16015625 167.19140625 C387.06942198 169.38294536 389.03258156 171.51841816 391.01000977 173.6484375 C396.61835172 179.69512601 401.92561797 185.91895268 407.0625 192.375 C407.6802832 193.14336182 407.6802832 193.14336182 408.31054688 193.92724609 C463.12954353 262.12125359 500.52148524 343.67794743 519.25 451.5625 C519.48251465 453.26913818 519.48251465 453.26913818 519.71972656 455.01025391 C520.20851998 458.79440946 520.64821624 462.58213669 521.0625 466.375 C521.15043823 467.15958588 521.23837646 467.94417175 521.32897949 468.75253296 C523.23684521 486.25256346 523.46171956 503.72906573 523.4375 521.3125 C523.4374081 522.03446438 523.43731621 522.75642876 523.43722153 523.50027084 C523.43325729 547.64625559 522.57086125 571.45134502 519.0625 595.375 C518.87526367 596.67888672 518.68802734 597.98277344 518.49511719 599.32617188 C517.25010185 607.72518727 515.75162889 616.05451875 514.0625 624.375 C513.81129395 625.61475586 513.56008789 626.85451172 513.30126953 628.13183594 C505.23567464 667.18057643 492.85450353 705.21037767 476.0625 741.375 C475.61938477 742.3434082 475.17626953 743.31181641 474.71972656 744.30957031 C467.93205314 759.11949034 460.32926585 773.34039352 452.0625 787.375 C451.48564453 788.3556543 450.90878906 789.33630859 450.31445312 790.34667969 C442.77346289 803.0997024 434.85296619 815.44784763 426.0625 827.375 C425.28390625 828.4371875 424.5053125 829.499375 423.703125 830.59375 C421.51545846 833.54166946 419.29886436 836.46387054 417.0625 839.375 C416.64677734 839.91688965 416.23105469 840.4587793 415.80273438 841.01708984 C405.93586727 853.84036268 395.42807421 866.04005835 384.42578125 877.8984375 C383.03578655 879.40393319 381.65709084 880.91906501 380.28125 882.4375 C372.65044134 890.85064708 364.88801787 899.08268089 356.24609375 906.47265625 C354.05455464 908.38192198 351.91908184 910.34508156 349.7890625 912.32250977 C343.74237399 917.93085172 337.51854732 923.23811797 331.0625 928.375 C330.55025879 928.78685547 330.03801758 929.19871094 329.51025391 929.62304688 C261.31624641 984.44204353 179.75955257 1021.83398524 71.875 1040.5625 C70.16836182 1040.79501465 70.16836182 1040.79501465 68.42724609 1041.03222656 C64.64309054 1041.52101998 60.85536331 1041.96071624 57.0625 1042.375 C56.27791412 1042.46293823 55.49332825 1042.55087646 54.68496704 1042.64147949 C37.18493654 1044.54934521 19.70843427 1044.77421956 2.125 1044.75 C1.40303562 1044.7499081 0.68107124 1044.74981621 -0.06277084 1044.74972153 C-24.20875559 1044.74575729 -48.01384502 1043.88336125 -71.9375 1040.375 C-73.24138672 1040.18776367 -74.54527344 1040.00052734 -75.88867188 1039.80761719 C-84.28768727 1038.56260185 -92.61701875 1037.06412889 -100.9375 1035.375 C-102.17725586 1035.12379395 -103.41701172 1034.87258789 -104.69433594 1034.61376953 C-143.74307643 1026.54817464 -181.77287767 1014.16700353 -217.9375 997.375 C-218.9059082 996.93188477 -219.87431641 996.48876953 -220.87207031 996.03222656 C-235.68199034 989.24455314 -249.90289352 981.64176585 -263.9375 973.375 C-264.9181543 972.79814453 -265.89880859 972.22128906 -266.90917969 971.62695312 C-279.6622024 964.08596289 -292.01034763 956.16546619 -303.9375 947.375 C-305.53078125 946.20710937 -305.53078125 946.20710937 -307.15625 945.015625 C-310.10416946 942.82795846 -313.02637054 940.61136436 -315.9375 938.375 C-316.47938965 937.95927734 -317.0212793 937.54355469 -317.57958984 937.11523438 C-330.40286268 927.24836727 -342.60255835 916.74057421 -354.4609375 905.73828125 C-355.96643319 904.34828655 -357.48156501 902.96959084 -359 901.59375 C-367.41314708 893.96294134 -375.64518089 886.20051787 -383.03515625 877.55859375 C-384.94442198 875.36705464 -386.90758156 873.23158184 -388.88500977 871.1015625 C-394.49335172 865.05487399 -399.80061797 858.83104732 -404.9375 852.375 C-405.34935547 851.86275879 -405.76121094 851.35051758 -406.18554688 850.82275391 C-461.00454353 782.62874641 -498.39648524 701.07205257 -517.125 593.1875 C-517.28000977 592.04974121 -517.43501953 590.91198242 -517.59472656 589.73974609 C-518.08351998 585.95559054 -518.52321624 582.16786331 -518.9375 578.375 C-519.02543823 577.59041412 -519.11337646 576.80582825 -519.20397949 575.99746704 C-521.11184521 558.49743654 -521.33671956 541.02093427 -521.3125 523.4375 C-521.3124081 522.71553562 -521.31231621 521.99357124 -521.31222153 521.24972916 C-521.30825729 497.10374441 -520.44586125 473.29865498 -516.9375 449.375 C-516.75026367 448.07111328 -516.56302734 446.76722656 -516.37011719 445.42382812 C-515.12510185 437.02481273 -513.62662889 428.69548125 -511.9375 420.375 C-511.56069092 418.51536621 -511.56069092 418.51536621 -511.17626953 416.61816406 C-503.11067464 377.56942357 -490.72950353 339.53962233 -473.9375 303.375 C-473.49438477 302.4065918 -473.05126953 301.43818359 -472.59472656 300.44042969 C-465.80705314 285.63050966 -458.20426585 271.40960648 -449.9375 257.375 C-449.36064453 256.3943457 -448.78378906 255.41369141 -448.18945312 254.40332031 C-440.64846289 241.6502976 -432.72796619 229.30215237 -423.9375 217.375 C-422.76960938 215.78171875 -422.76960938 215.78171875 -421.578125 214.15625 C-419.39045846 211.20833054 -417.17386436 208.28612946 -414.9375 205.375 C-414.52177734 204.83311035 -414.10605469 204.2912207 -413.67773438 203.73291016 C-403.81086727 190.90963732 -393.30307421 178.70994165 -382.30078125 166.8515625 C-380.91078655 165.34606681 -379.53209084 163.83093499 -378.15625 162.3125 C-370.52544134 153.89935292 -362.76301787 145.66731911 -354.12109375 138.27734375 C-351.92955464 136.36807802 -349.79408184 134.40491844 -347.6640625 132.42749023 C-341.61737399 126.81914828 -335.39354732 121.51188203 -328.9375 116.375 C-328.42525879 115.96314453 -327.91301758 115.55128906 -327.38525391 115.12695312 C-259.19124641 60.30795647 -177.63455257 22.91601476 -69.75 4.1875 C-68.04336182 3.95498535 -68.04336182 3.95498535 -66.30224609 3.71777344 C-62.51809054 3.22898002 -58.73036331 2.78928376 -54.9375 2.375 C-54.15291412 2.28706177 -53.36832825 2.19912354 -52.55996704 2.10852051 C-35.05993654 0.20065479 -17.58343427 -0.02421956 0 0 Z " fill="#FEFEFE" transform="translate(536.9375,15.625)"/>
<path d="M0 0 C3.26622119 0.12449722 4.17347633 1.18372972 6.4453125 3.58984375 C7.34595125 4.69975746 8.23876054 5.8160553 9.125 6.9375 C30.75376987 33.28875604 60.11643021 49.93297577 92 61 C92.77778809 61.27295898 93.55557617 61.54591797 94.35693359 61.82714844 C119.96635864 70.70186459 146.81275626 75.26245482 173.625 78.6875 C175.02709717 78.86671997 175.02709717 78.86671997 176.45751953 79.04956055 C179.3026621 79.39598462 182.14877838 79.70785489 185 80 C186.42699219 80.14683228 186.42699219 80.14683228 187.8828125 80.29663086 C199.27497337 81.28445669 210.70013728 81.18607447 222.12646484 81.18530273 C225.70032013 81.18746987 229.27385608 81.20562341 232.84765625 81.22460938 C254.38664029 81.27884503 275.72227357 80.03930184 297 76.625 C298.41861212 76.4028644 299.83723205 76.18077871 301.25585938 75.95874023 C310.4900334 74.4940627 319.63234819 72.80495148 328.70849609 70.55224609 C331.3356043 69.91912029 333.97275734 69.34409583 336.61328125 68.76953125 C382.19940785 58.64657934 426.69907012 40.12773161 460.60546875 7.4921875 C461.39566406 6.75226562 462.18585938 6.01234375 463 5.25 C463.680625 4.59515625 464.36125 3.9403125 465.0625 3.265625 C465.701875 2.84796875 466.34125 2.4303125 467 2 C468.98 2.495 468.98 2.495 471 3 C470.67 9.6 470.34 16.2 470 23 C470.99 21.35 471.98 19.7 473 18 C493.44970272 28.72252112 506.86788329 46.61869848 513.75390625 68.3828125 C518.92704697 89.14772698 513.56170376 112.66960499 502.93017578 130.82714844 C490.73321956 150.42997242 473.01858961 162.55290425 453.4519043 173.98364258 C441.08869847 181.23555463 429.01542174 188.85330116 418.1640625 198.2578125 C416.15850485 199.87239501 414.30788668 200.89712145 412 202 C419.92610448 184.73104773 427.97808574 167.8350422 440 153 C440.45890625 152.40058594 440.9178125 151.80117188 441.390625 151.18359375 C445.56223598 145.85783707 450.90004852 141.70070235 456.125 137.4609375 C471.63102225 124.79334416 483.12698437 108.23494628 486 88 C486.86397154 76.71925054 486.86397154 76.71925054 482 67 C479.06574105 64.25710577 476.49807771 62.2390773 472.875 60.5 C468.22826801 56.45936349 467.43381764 50.83648122 466 45 C465.83564453 46.68416016 465.83564453 46.68416016 465.66796875 48.40234375 C465.50834038 49.91411833 465.34815404 51.42583407 465.1875 52.9375 C465.08211914 54.04061523 465.08211914 54.04061523 464.97460938 55.16601562 C464.45147902 59.95788965 463.36360516 64.15785185 461.75170898 68.69262695 C460.71308972 71.880672 460.10322021 75.10395081 459.46801758 78.39233398 C450.7619944 123.23656658 431.25446923 167.13469649 403 203 C402.22914063 203.98484375 401.45828125 204.9696875 400.6640625 205.984375 C371.56652021 242.33004154 332.42190536 271.19269821 288 286 C285.54292927 286.11120497 283.11346708 286.16761657 280.65576172 286.17700195 C279.90853851 286.18357315 279.16131531 286.19014435 278.39144897 286.19691467 C275.90419389 286.21669315 273.41700052 286.22834426 270.9296875 286.23828125 C270.06895756 286.24235678 269.20822762 286.2464323 268.32141495 286.25063133 C263.73169445 286.2715492 259.142004 286.28580455 254.55224609 286.29516602 C250.82095285 286.30388586 247.09004928 286.32440837 243.35888672 286.35668945 C219.56214016 286.5581827 196.5424756 285.5863069 173 282 C171.09641453 281.72159215 169.19277496 281.4435538 167.2890625 281.16601562 C131.89119664 275.96187813 108.60933083 256.78959945 87 229 C85.39898926 227.12230452 83.79463127 225.24745955 82.1875 223.375 C71.18603207 210.1630362 61.97663259 195.63147445 53 181 C52.35466309 179.95706787 52.35466309 179.95706787 51.69628906 178.89306641 C21.23794459 129.47255979 -6.0028884 60.31996251 -1 1 C-0.67 0.67 -0.34 0.34 0 0 Z " fill="#370900" transform="translate(299,567)"/>
<path d="M0 0 C0 0.33 0 0.66 0 1 C-1.051875 1.07476562 -2.10375 1.14953125 -3.1875 1.2265625 C-29.37625538 3.31312312 -56.75477471 6.54004095 -82 14 C-82.92522461 14.27005859 -83.85044922 14.54011719 -84.80371094 14.81835938 C-96.3813084 18.26765346 -107.50679195 22.41018669 -118.4375 27.5625 C-119.3661084 27.9970752 -120.2947168 28.43165039 -121.25146484 28.87939453 C-131.89982069 34.08822981 -143.93742345 42.29022052 -148 54 C-149.2534014 60.61233186 -147.48502129 65.15887623 -143.80078125 70.6640625 C-121.55987606 99.51452086 -71.01524304 106.74265418 -37.3359375 111.2109375 C-29.12810503 112.25289966 -20.90874048 113.19585794 -12.6875 114.125 C-11.93026642 114.21144775 -11.17303284 114.29789551 -10.39285278 114.38696289 C-8.16212661 114.64016526 -5.93081004 114.88736275 -3.69921875 115.1328125 C-2.40846436 115.27605957 -1.11770996 115.41930664 0.2121582 115.56689453 C12.88832891 116.79244858 25.53629815 117.17828027 38.26171875 117.23828125 C39.05619919 117.24308376 39.85067963 117.24788628 40.66923523 117.25283432 C46.67531754 117.28857179 52.681323 117.30433362 58.6875 117.3125 C59.56799137 117.31409245 60.44848274 117.31568489 61.35565567 117.31732559 C83.02183817 117.35061181 104.60216038 117.28635514 126.1875 115.1875 C127.03984222 115.10472809 127.89218445 115.02195618 128.77035522 114.93667603 C202.07375306 108.01867648 202.07375306 108.01867648 262.58984375 70.87109375 C266.10473883 66.2072856 266.64111505 61.73797967 266 56 C263.42812357 45.36957741 254.94327745 37.98383008 246.203125 31.94140625 C214.35835478 12.64036869 173.48134088 7.07907296 136.9753418 3.98754883 C135.81429932 3.88466553 134.65325684 3.78178223 133.45703125 3.67578125 C132.42553955 3.59239502 131.39404785 3.50900879 130.33129883 3.4230957 C129.56197021 3.28347412 128.7926416 3.14385254 128 3 C127.67 2.34 127.34 1.68 127 1 C156.47215246 -8.82405082 208.63711788 3.6767173 237 13 C237.77633789 13.25507324 238.55267578 13.51014648 239.35253906 13.77294922 C260.53709061 20.87550528 281.11630556 30.34669007 292 51 C294.84869588 58.32114841 295.40115232 65.10317819 292.71484375 72.57421875 C280.32299243 98.68461163 251.72367343 111.67830789 225.84667969 121.15478516 C209.29515382 126.98073853 192.57108846 131.91761356 175.375 135.4375 C174.28851669 135.66102646 174.28851669 135.66102646 173.18008423 135.8890686 C158.12031129 138.96246251 142.99369246 141.26403938 127.74276733 143.15078735 C123.40426431 143.6876718 119.07623552 144.26925948 114.75021362 144.89855957 C74.21819918 150.71868846 30.54102823 150.57959498 -10 145 C-11.73674616 144.7910231 -13.47371195 144.58385983 -15.2109375 144.37890625 C-66.15767313 137.96255689 -119.59704774 121.83650345 -159 88 C-159.81210937 87.33355469 -160.62421875 86.66710937 -161.4609375 85.98046875 C-169.97209809 78.8124315 -175.57398365 70.72894857 -177.38671875 59.6328125 C-178.01335761 50.91556967 -173.82443648 43.71062712 -168.671875 36.94140625 C-155.65716817 22.61381233 -135.50302811 15.23051259 -117.16064453 10.56494141 C-114.9963402 9.99904307 -112.85859799 9.36939348 -110.71484375 8.73046875 C-75.58975572 -1.19951888 -36.15537723 -0.29299333 0 0 Z " fill="#390C03" transform="translate(471,487)"/>
<path d="M0 0 C1.69140625 1.09375 1.69140625 1.09375 4.19140625 3.09375 C1.41860583 4.94228361 0.00816425 5.51814775 -3.1328125 6.20703125 C-4.4158728 6.49670776 -4.4158728 6.49670776 -5.72485352 6.79223633 C-6.63936279 6.99486084 -7.55387207 7.19748535 -8.49609375 7.40625 C-34.31899447 13.37654511 -70.5398475 22.3971489 -85.99609375 45.84375 C-89.38919463 52.3341851 -90.24684324 57.90250254 -88.80859375 65.09375 C-80.32665571 89.46590107 -57.30921482 101.01474292 -35.80859375 112.09375 C-35.01324219 112.50512207 -34.21789062 112.91649414 -33.3984375 113.34033203 C-3.4703346 128.6316419 29.42679366 138.16038333 62.19140625 145.09375 C63.66836035 145.41131392 65.14524514 145.72920034 66.62207031 146.04736328 C114.5624056 156.33252242 163.50817549 162.26804482 212.55944824 163.04943848 C216.88476985 163.12225939 221.20981893 163.20890708 225.53492737 163.2933197 C240.42003288 163.5834874 255.30553339 163.84635511 270.19140625 164.09375 C269.53140625 165.08375 268.87140625 166.07375 268.19140625 167.09375 C265.20286403 167.62595615 262.39657349 167.9453158 259.37890625 168.15625 C257.9256897 168.26912354 257.9256897 168.26912354 256.44311523 168.38427734 C253.0269383 168.63857031 249.60943216 168.86572867 246.19140625 169.09375 C244.94456055 169.18543457 243.69771484 169.27711914 242.41308594 169.37158203 C173.56886923 174.36384364 104.15656511 170.68468937 36.31933594 157.9777832 C29.15508216 156.62924161 29.15508216 156.62924161 21.97265625 155.3828125 C-21.78851982 147.92792189 -67.89969333 133.23775996 -102.80859375 105.09375 C-104.02289063 104.17916016 -104.02289063 104.17916016 -105.26171875 103.24609375 C-115.17930019 95.30190861 -121.67773483 82.73175218 -123.15234375 70.1640625 C-123.69429604 59.51469992 -119.70918638 52.80733603 -112.74609375 45.03125 C-90.85786 21.82245916 -57.57417863 10.91271547 -27.32226562 3.7109375 C-24.28859884 2.96607448 -21.29052714 2.12013598 -18.28759766 1.26123047 C-4.99301373 -2.50189889 -4.99301373 -2.50189889 0 0 Z " fill="#3A0D04" transform="translate(316.80859375,733.90625)"/>
<path d="M0 0 C2.12402344 0.39648438 2.12402344 0.39648438 4 1 C3.59273682 1.67353516 3.18547363 2.34707031 2.76586914 3.04101562 C-1.2189494 9.63797293 -5.1822809 16.24725074 -9.12792969 22.86767578 C-10.67054526 25.44876052 -12.22721081 28.02040293 -13.7890625 30.58984375 C-19.37239383 39.93846299 -23.05061165 49.52656018 -26 60 C-26.1870752 60.65742188 -26.37415039 61.31484375 -26.56689453 61.9921875 C-29.16259552 71.65860663 -29.20902724 81.35099777 -29.25 91.3125 C-29.270625 92.55451172 -29.29125 93.79652344 -29.3125 95.07617188 C-29.41226544 118.85775769 -18.04228841 138.48488967 -4.38574219 157.10791016 C8.58161818 174.81352024 20.0511753 192.30541976 25.8125 213.75 C26.12320435 214.90181763 26.12320435 214.90181763 26.44018555 216.0769043 C30.39516413 231.65848659 31.38882962 250.74174086 26 266 C25.79068848 266.61681641 25.58137695 267.23363281 25.36572266 267.86914062 C19.25523606 285.77247715 9.8506398 299.86685783 -2.91015625 313.7265625 C-4.85871415 315.84630212 -6.74757333 318.00483469 -8.625 320.1875 C-13.70709494 326.00562249 -19.1830664 331.2115649 -25.03125 336.25 C-26.93023071 337.93798286 -28.72005988 339.68769734 -30.5 341.5 C-32.83025445 343.87224102 -35.22104406 346.09113517 -37.75 348.25 C-49.62658823 358.60748973 -62.44837902 370.8218854 -64.26611328 387.43164062 C-64.36482317 389.94155041 -64.36553961 392.42631567 -64.3125 394.9375 C-64.3012207 395.81921875 -64.28994141 396.7009375 -64.27832031 397.609375 C-64.07368388 407.30267976 -62.06010661 415.34593015 -58.70703125 424.43359375 C-58 427 -58 427 -59 430 C-69.78764534 413.77589308 -78.93055999 397.83778647 -74.9375 377.75 C-71.44727822 364.03037246 -63.99824199 353.57214452 -55 343 C-54.48099121 342.3901123 -53.96198242 341.78022461 -53.42724609 341.15185547 C-49.13843241 336.1366999 -44.7920878 331.17207608 -40.43212891 326.21875 C-16.59880967 299.0931177 2.89709997 267.96939442 1.37109375 230.45703125 C0.02065843 210.82313208 -10.97545405 195.09115741 -21.91015625 179.45703125 C-35.60955649 159.83695148 -43.18808401 141.76898911 -43.18530273 117.5690918 C-43.18746952 115.46707284 -43.20561087 113.36559697 -43.22460938 111.26367188 C-43.26211698 102.34577938 -42.54757173 93.80660426 -41 85 C-40.86456787 84.21069092 -40.72913574 83.42138184 -40.58959961 82.6081543 C-35.31616282 53.79295329 -24.53281898 25.30472946 -4 4 C-3.33484375 3.2265625 -2.6696875 2.453125 -1.984375 1.65625 C-1.32953125 1.1096875 -0.6746875 0.563125 0 0 Z " fill="#390C03" transform="translate(618,111)"/>
<path d="M0 0 C35.60349592 -1.591547 83.88623554 8.60715908 111 33 C117.33394078 39.09780702 122.22381231 46.58639997 122.5 55.5625 C121.79969414 68.04545199 115.37452377 77.15602557 106.375 85.5625 C89.53915733 99.96393619 70.41423912 110.59120131 50 119 C49.04496582 119.39687012 48.08993164 119.79374023 47.10595703 120.20263672 C21.84766444 130.53799715 -4.84991693 137.1106805 -31.625 142.1875 C-33.26758789 142.50037964 -33.26758789 142.50037964 -34.94335938 142.81958008 C-39.69051375 143.65827968 -43.26377908 144.170567 -48 143 C-48.33 141.68 -48.66 140.36 -49 139 C-48.35264893 138.90501221 -47.70529785 138.81002441 -47.03833008 138.7121582 C-17.33033952 134.29826489 10.45790251 127.53125384 37 113 C37.90363281 112.51144531 38.80726563 112.02289062 39.73828125 111.51953125 C47.97233831 106.83124039 56.11451067 100.95143823 62.76171875 94.19140625 C65 92 65 92 67 92 C67.26039063 91.443125 67.52078125 90.88625 67.7890625 90.3125 C69.14187208 87.72907009 70.73278672 85.40953565 72.375 83 C78.51671768 73.33224398 81.59575555 63.50331607 80 52 C77.83278547 44.42858242 74.30319624 37.81220838 69 32 C68.360625 31.29488281 67.72125 30.58976563 67.0625 29.86328125 C53.4615882 16.33320753 33.73737283 9.65056666 15.5 5.375 C12.98804744 4.78514879 10.47753626 4.18911377 7.96875 3.5859375 C6.86982422 3.3286084 5.77089844 3.0712793 4.63867188 2.80615234 C2 2 2 2 0 0 Z " fill="#3A0D04" transform="translate(765,744)"/>
<path d="M0 0 C7.06196257 1.11504672 12.42100791 7.72895357 16.4765625 13.21875 C25.78403132 26.6554132 30.89180143 41.84740954 28.69140625 58.30859375 C25.35051986 73.00258078 15.061305 83.17886516 5.53320312 94.22119141 C1.79818603 98.55452494 -1.90965544 102.90930637 -5.57617188 107.30078125 C-6.55710366 108.47144058 -7.54309278 109.63787458 -8.53320312 110.80078125 C-23.68103946 128.63280667 -30.30930673 145.40080205 -29 169 C-27.21414719 190.77748285 -14.31896489 208.0304641 -1.59619141 224.86669922 C0.65478189 227.8751123 2.83087174 230.93217454 5 234 C-14.07810898 228.44137088 -31.47658052 206.71440477 -41 190 C-49.82967754 173.49183126 -53.3866616 156.00094906 -49.125 137.34765625 C-47.97332093 133.7372939 -46.63863826 130.4148721 -45 127 C-44.50371094 125.91332031 -44.00742187 124.82664062 -43.49609375 123.70703125 C-36.82329836 110.24888728 -26.60314024 99.3019839 -16.3828125 88.46679688 C-0.8976036 72.04110213 15.12477707 54.05509721 14.43359375 30.25390625 C14.00266404 24.15510983 11.49871935 19.91234333 8 15 C7.19691654 13.81535952 6.39627027 12.62906435 5.59765625 11.44140625 C3.44235099 8.26176806 1.23501264 5.124051 -1 2 C-0.67 1.34 -0.34 0.68 0 0 Z " fill="#3A0D04" transform="translate(549,330)"/>
<path d="M0 0 C-0.72316406 1.10408203 -0.72316406 1.10408203 -1.4609375 2.23046875 C-2.09257812 3.20628906 -2.72421875 4.18210937 -3.375 5.1875 C-4.31472656 6.63189453 -4.31472656 6.63189453 -5.2734375 8.10546875 C-8.30567194 13.18892061 -9.62913911 17.02317849 -9 23 C-4.31551237 32.56416225 5.43784941 36.6707974 15 40 C17.8393784 40.92976951 20.69278677 41.79379659 23.5625 42.625 C24.21460449 42.81908447 24.86670898 43.01316895 25.53857422 43.21313477 C42.0490223 47.7620891 59.52951613 48.91559127 76.5 50.625 C79.69422393 50.94880728 82.88826222 51.2741559 86.08190918 51.60360718 C88.04811102 51.80627985 90.01465494 52.00566835 91.98156738 52.20132446 C92.86098999 52.29166962 93.7404126 52.38201477 94.64648438 52.47509766 C95.4174646 52.55265289 96.18844482 52.63020813 96.98278809 52.71011353 C99 53 99 53 102 54 C101.67 54.99 101.34 55.98 101 57 C96.36507523 58.16600052 91.87885265 58.16097355 87.1328125 58.16796875 C85.83784096 58.17425293 85.83784096 58.17425293 84.51670837 58.18066406 C81.71942593 58.19044351 78.92229672 58.19045385 76.125 58.1875 C74.69823441 58.18709213 74.69823441 58.18709213 73.24264526 58.18667603 C59.0709369 58.16796582 45.06937467 57.83813748 31 56 C30.19771973 55.90348145 29.39543945 55.80696289 28.56884766 55.70751953 C8.95657668 53.30190563 -17.44914118 48.94069168 -30.8125 32.8125 C-32.53583277 28.73092239 -32.85301511 25.3574855 -32 21 C-28.05691085 12.20272913 -19.77245904 4.61314649 -11.0625 0.609375 C-7.39683763 -0.47366161 -3.77764694 -0.31480391 0 0 Z " fill="#3A0D05" transform="translate(395,521)"/>
<path d="M0 0 C-0.38437293 3.30560718 -0.75002542 5.61003966 -2.5625 8.4375 C-4.51825878 11.92385261 -4.55371833 14.05475688 -4 18 C10.11165623 37.8030977 45.61615345 42.09096797 68 46 C75.8994707 47.2675694 83.83714541 48.23571237 91.78125 49.17578125 C96.66438831 49.77009135 101.26943764 50.65928369 106 52 C105.505 52.99 105.505 52.99 105 54 C94.54532377 54.26129432 84.41508861 53.62210155 74.03686523 52.40087891 C71.67337157 52.12334094 69.30863052 51.85956997 66.94335938 51.59765625 C59.88824889 50.80105939 52.89530574 49.92619586 45.94946289 48.41992188 C43.43964059 47.87929641 40.91882929 47.52892842 38.375 47.1875 C-6.02035871 40.43856186 -6.02035871 40.43856186 -19.125 27.1875 C-21.64054693 22.91107022 -22.10140688 19.83661284 -21 15 C-17.42641372 6.85867186 -9.57583435 -1.47320529 0 0 Z " fill="#3D1108" transform="translate(388,809)"/>
<path d="M0 0 C5.78052966 -0.29334031 9.15378884 0.21952617 13.6796875 4.1796875 C16.55160294 8.48756065 16.2590204 12.12304104 15.6796875 17.1796875 C13.10066408 26.70116317 8.11979543 32.53933513 -0.0390625 37.8828125 C-4.53747102 40.44012693 -7.93638576 41.4299026 -13.1328125 41.3046875 C-14.10863281 41.28664063 -15.08445312 41.26859375 -16.08984375 41.25 C-17.19392578 41.21519531 -17.19392578 41.21519531 -18.3203125 41.1796875 C-18.6503125 40.5196875 -18.9803125 39.8596875 -19.3203125 39.1796875 C-18.6603125 38.5403125 -18.0003125 37.9009375 -17.3203125 37.2421875 C-14.83033924 34.74505914 -12.43940628 32.166656 -10.0703125 29.5546875 C-9.38453125 28.79929687 -8.69875 28.04390625 -7.9921875 27.265625 C-4.91873207 23.43098669 -5.14756826 19.93015421 -5.3203125 15.1796875 C-5.6503125 14.5196875 -5.9803125 13.8596875 -6.3203125 13.1796875 C-8.64187847 12.77239522 -10.9771912 12.43530073 -13.3203125 12.1796875 C-14.015625 10.41015625 -14.015625 10.41015625 -14.3203125 8.1796875 C-12.01781921 4.72594756 -8.86240341 1.80485949 -5.0078125 0.2421875 C-3.33704244 0.20333238 -1.66623297 0.12903488 0 0 Z " fill="#3A0C04" transform="translate(684.3203125,805.8203125)"/>
</svg>
